<?xml version="1.0" encoding="UTF-8"?>
<!DOCTYPE svg PUBLIC "-//W3C//DTD SVG 1.1//EN" "http://www.w3.org/Graphics/SVG/1.1/DTD/svg11.dtd">
<!-- Creator: CorelDRAW -->
<svg xmlns="http://www.w3.org/2000/svg" xml:space="preserve" width="92.8838mm" height="104.668mm" version="1.1" style="shape-rendering:geometricPrecision; text-rendering:geometricPrecision; image-rendering:optimizeQuality; fill-rule:evenodd; clip-rule:evenodd"
viewBox="0 0 6214.6 7003.07"
 xmlns:xlink="http://www.w3.org/1999/xlink"
 xmlns:xodm="http://www.corel.com/coreldraw/odm/2003">
 <defs>
  <style type="text/css">
   <![CDATA[
    .fil0 {fill:#2F5CE0}
    .fil1 {fill:#5A7FE7}
    .fil2 {fill:#87A2EF}
   ]]>
  </style>
 </defs>
 <g id="Capa_x0020_1">
  <metadata id="CorelCorpID_0Corel-Layer"/>
  <g id="_2424011226784">
   <path class="fil0" d="M3499.61 4916.05c334.58,243.38 1429.7,481.28 2039.96,391.72 571.27,-83.87 664.29,53.95 675.03,-338.52l0 -278.54c-3.29,-392.59 -0.33,-786.6 0,-1179.42l0 -59.92 -2714.99 1464.69z"/>
   <path class="fil1" d="M-0 3035.1l0 1880.95c61.08,-70.23 576.59,-1110.23 985.44,-1472.58l1053.97 -754.78c178.35,-103.09 787.48,-425.78 882.35,-555.33 -81.4,-18.95 -668.01,-243.82 -721.86,-278.27 -131.08,210.95 -370.46,202.62 -560.64,301.66 -65.68,34.24 -170.14,119.69 -241.68,170.41 -217.08,153.92 -1213.54,690.9 -1397.59,707.94z"/>
   <path class="fil2" d="M278.27 5421.15c293.72,-68.69 522.41,-193.2 798.38,-311.52 228.91,-98.16 556.81,-282.05 824.83,-296.23 0,-331.51 -48.8,-540.49 -47,-865.1 1.75,-311.14 0.6,-622.55 0.6,-933.74 -130.7,34.89 -202.74,116.24 -311.63,198.51 -131.96,99.58 -187.18,135.96 -303.52,253.02 -426.11,428.52 -669.16,722.95 -931.54,1252.48 -216.2,436.3 -318.37,641.06 -30.13,702.57z"/>
   <path class="fil1" d="M2148.04 1669.61l971.47 -820.4c72.8,-56.1 105.78,-77.73 178.74,-146.42l147.73 -192.65c-131.85,-152.28 -287.63,-413.84 -431.43,-510.14 -167.01,38.89 -502.96,253.02 -669.05,351.29l-2020.84 1179.19c559.22,0 1342.65,-56.09 1823.37,139.13z"/>
   <path class="fil0" d="M2148.04 1669.61c410.06,112.57 906.79,354.63 1264.31,577.36 177.97,110.87 578.13,381.3 761.63,396.59 -73.67,-885.59 -352.82,-1555.68 -727.99,-2133.41l-147.73 192.65c-72.96,68.69 -105.94,90.32 -178.74,146.42l-971.47 820.4z"/>
   <path class="fil1" d="M2504.37 6020.25c82,172.55 119.74,271.58 249.79,460.68 46.45,67.6 82.82,121.22 134.7,184.71l172.05 179.12c331.02,-90.27 654.7,-457.93 906.62,-654.86 137.6,-107.53 285.01,-234.66 426.28,-359.12 120.07,-105.67 328.61,-288.9 450.16,-358.19 -199.06,0 -503.51,-71.65 -686.69,-119.74 -243.38,-63.92 -514.74,-191.34 -681.81,-204.87 -139.68,196.87 -299.63,279.75 -478.21,446.49 -104.84,97.94 -144.45,120.89 -252.25,211.17 -100.25,83.92 -140.78,141.44 -240.64,214.62z"/>
   <path class="fil2" d="M-0 3035.1c184.05,-17.03 1180.51,-554.02 1397.59,-707.94 71.54,-50.72 176,-136.18 241.68,-170.41 190.18,-99.04 429.56,-90.71 560.64,-301.66 -332.82,-64.14 -642.37,-164.33 -1033.1,-185.81 -477.44,-26.18 -776.63,93.07 -1166.81,93.07l0 1272.75z"/>
   <path class="fil1" d="M4173.98 1738.96c104.57,155.84 139.13,638.22 139.13,920.87 183.78,-4.6 733.91,-219.88 914.07,-303.74l801.88 -390.07c43.76,-111.7 80.85,-199.23 92.79,-342.8 -205.36,-47.82 -229.08,-107.37 -396.26,-199.77 -131.47,-72.75 -301.44,-182.19 -412.2,-217.63l-91.92 77.78c-10.13,6.79 -21.58,13.64 -32.26,19.99l-1015.24 435.37z"/>
   <path class="fil0" d="M4313.11 2659.83c0,478.53 46.4,820.24 46.4,1328.68 208.37,-110.27 345.37,-240.53 537.15,-390.4 298.98,-233.57 626.49,-691.45 840.67,-1011.79 121.38,-181.53 187.67,-452.08 291.74,-620.3l-801.88 390.07c-180.17,83.86 -730.29,299.14 -914.07,303.74z"/>
   <path class="fil1" d="M278.27 5421.15c8.22,7.83 22.29,7.07 26.4,21.53l1179.42 668.94c278.49,-5.21 195.72,-26.46 384.21,-119.69 134.31,-66.45 239.1,-103.91 357.86,-160.88 -177.37,-281.12 -219.5,-642.26 -288.08,-907.28l-36.59 -110.38c-268.02,14.18 -595.92,198.07 -824.83,296.23 -275.97,118.32 -504.67,242.83 -798.38,311.52z"/>
   <path class="fil1" d="M3499.61 4916.05l2714.99 -1464.69 0 -1250.57 -92.74 2.47 -404.7 731.6c-9.37,15.88 -65.13,111.75 -71.1,119.9l-648.23 690.85c-216.54,201.53 -526.36,388.98 -797.07,547.94 -161.37,94.81 -295.2,170.68 -444.19,251.48 -162.52,88.14 -267.42,186.14 -463.75,231.87 98,133.77 37.58,68.8 206.78,139.13z"/>
   <path class="fil2" d="M2504.37 6020.25c99.86,-73.18 140.39,-130.7 240.64,-214.62 107.8,-90.27 147.4,-113.23 252.25,-211.17 178.58,-166.74 338.52,-249.62 478.21,-446.49 -50.84,-46.23 22.07,5.7 -77.34,-59.11 -44.31,-28.92 -26.62,-17.96 -84.58,-49.85l-1272.92 -725.85c0,423.76 173.92,1144.35 368.71,1537.76 6.85,13.8 39.88,77.89 45.25,87.53l49.79 81.78z"/>
   <path class="fil2" d="M4173.98 1738.96l1015.24 -435.37c10.69,-6.35 22.13,-13.2 32.26,-19.99l91.92 -77.78 -1927.83 -1113.08c37.3,139.79 743.38,991.96 788.41,1646.22z"/>
   <path class="fil0" d="M4843.96 5472.59c-121.55,69.29 -330.09,252.52 -450.16,358.19 -141.27,124.45 -288.68,251.59 -426.28,359.12 -251.92,196.93 -575.6,564.59 -906.62,654.86 41.74,76.8 43.17,86.93 92.79,158.31 225.85,-52.59 1719.08,-957.51 2054.92,-1145.12 128.68,-71.93 189.37,-111.53 324.83,-185.31 280.73,-153 265.56,-123.3 310.15,-246.39 -220.87,105.94 -696.83,46.35 -999.64,46.35z"/>
   <path class="fil0" d="M1484.08 6111.62l1344.95 798.71c-41.36,-154.86 -60.48,-116.95 -158.58,-259.09 -144.06,-208.65 -395.44,-582.94 -444.3,-820.18 -118.76,56.96 -223.55,94.43 -357.86,160.88 -188.49,93.24 -105.72,114.49 -384.21,119.69z"/>
   <path class="fil2" d="M6121.86 2203.26l92.74 -2.47 0 -113.77c-158.2,88.85 -39.28,13.03 -92.74,116.24z"/>
  </g>
 </g>
</svg>
